<?xml version="1.0" encoding="utf-8"?>
<svg version="1.2" baseProfile="tiny" id="Logo" xmlns="http://www.w3.org/2000/svg" xmlns:xlink="http://www.w3.org/1999/xlink"
	 x="0px" y="0px" viewBox="0 0 250 250" overflow="visible" xml:space="preserve">
<g id="Shield">
	<path id="Left_Wing" fill="#C1C1C1" d="M125,46c0,0,0,135.7347107,0,179l0,0l-78.8999939-43.6999969L31.8999939,58.2000008L125,25
		l0,0v22.2000008l0,0V47"/>
	<path id="Right_Wing_00000028289766694288182900000009522349039825695109_" fill="#C1C1C1" d="M125,47v0.2000008l0,0V25l0,0
		l93.1000061,33.2000008l-14.2000122,123.1000061L125,225l0,0c0-43.0881348,0-179,0-179" style="opacity: 0.9"/>
</g>
<g id="Helmet">
	<path fill="#FFFFFF" d="M69.990097,143.4824677c0.7438583-1.5413208,1.8964539-2.3276062,3.679306-2.4329071
		c1.7117615-0.10112,2.7470627-1.567749,2.7670441-3.5046844c0.0699692-6.78302,1.4470291-13.2908554,4.3157806-19.4345398
		c5.7018585-12.2110138,14.8668671-20.7516327,27.4838943-25.5259857c0.9387131-0.355217,1.1723785-0.7902527,1.0434036-1.710434
		c-0.1885071-1.3448639-0.2927246-2.703949-0.3772583-4.0604324c-0.1398926-2.2447281,1.2155228-3.6971283,3.4561691-3.6996841
		c8.4121399-0.0095825,16.8243027-0.0090942,25.2364426-0.0004425c2.2975769,0.0023651,3.6390533,1.4608459,3.4820709,3.7801285
		c-0.0966339,1.4276352-0.2184448,2.8553085-0.3918915,4.2752762c-0.0886688,0.7258377,0.127594,1.0565796,0.8398285,1.3174438
		c9.8469696,3.6065826,17.7452087,9.7517471,23.6483002,18.4120026c5.4219818,7.9544678,8.1918793,16.776001,8.3657837,26.4052582
		c0.0450134,2.4923553,0.9989319,3.547821,3.4939117,3.8248901c1.6679993,0.1852264,2.9115143,1.4629669,2.9456024,3.1495056
		c0.0440979,2.182663,0.0394897,4.3674164,0.000412,6.5502777c-0.0264893,1.4812012-0.8330078,2.4894257-2.179718,3.0300446
		c-5.2023926,2.0884399-10.3557739,4.3175049-15.634201,6.1938019c-9.0212097,3.2067413-18.3170929,5.3391113-27.8500977,6.3545227
		c-7.5477829,0.8039551-15.0744019,0.596344-22.5857315-0.5069427c-13.6820221-2.0096588-26.7067719-6.164856-39.264946-11.8853302
		c-1.1377563-0.5182648-1.9266052-1.2885742-2.4741058-2.3674774
		C69.990097,148.9253235,69.990097,146.2039032,69.990097,143.4824677z M152.4454956,106.2462692
		c-0.0655823,0.4603653-0.1247864,0.7658539-0.1507263,1.0741272c-0.5012054,5.9551697-0.989624,11.911438-1.5018311,17.8656464
		c-0.1624908,1.8888474-1.6947632,3.1908493-3.4871674,3.0288925c-1.7242432-0.155777-3.0551147-1.6968079-2.9249115-3.495903
		c0.2014771-2.7838287,0.4655609-5.5631027,0.70047-8.3445358c0.388504-4.6000977,0.7863312-9.199501,1.1388397-13.8023529
		c0.026062-0.3402405-0.1829834-0.8898468-0.4477997-1.0298309c-1.6724854-0.8841248-3.390686-1.6819305-5.0959473-2.503746
		c-0.4096069-0.1973953-0.6259155-0.1537323-0.6611786,0.39711c-0.1051483,1.6424561-0.27005,3.2810364-0.406601,4.9215469
		c-0.5788269,6.9543076-1.1452484,13.9096832-1.7406464,20.8625717c-0.1564178,1.8267365-1.6653442,3.107048-3.4232483,2.9990463
		c-1.7501068-0.1075287-3.0565033-1.5689011-2.9930573-3.4177246c0.0380096-1.1076889,0.1588287-2.2127838,0.2509308-3.3183365
		c0.8645782-10.3779068,1.7254639-20.7561417,2.6110229-31.1322708c0.051651-0.605278-0.0484009-0.8097382-0.6935883-0.807373
		c-5.7641678,0.0211792-11.5284653,0.0184631-17.2926788,0.0028915c-0.5635147-0.0015259-0.7405319,0.1398163-0.6681137,0.7320328
		c0.1475525,1.2067642,0.206543,2.4242249,0.3077621,3.636795c0.5418015,6.4905319,1.0861282,12.9808578,1.6280136,19.4713898
		c0.3156052,3.78022,0.6629105,7.5582581,0.9274597,11.3420792c0.1298447,1.8570328-1.1819687,3.3376846-2.9198303,3.4879532
		c-1.7408371,0.1505127-3.3215027-1.1414185-3.4835358-2.9290771c-0.316597-3.4926605-0.5869522-6.989502-0.8785934-10.484436
		c-0.4402466-5.2757416-0.8823395-10.5513229-1.3465271-16.1005707c-1.8743362,0.9183578-3.6118622,1.8016663-5.379715,2.6194229
		c-0.666069,0.3081055-0.8401489,0.716095-0.7780228,1.4246292c0.6315002,7.2011642,1.2251205,14.4056396,1.8461227,21.6077423
		c0.1747208,2.026207-1.0142899,3.6622772-2.8636246,3.8577576c-1.8612595,0.1967468-3.3678818-1.1406097-3.5432968-3.1943436
		c-0.5055695-5.9189682-0.9928207-11.8395004-1.4918594-17.7590256c-0.0246506-0.292366-0.0928192-0.5810623-0.1522522-0.941391
		c-0.2149048,0.1347427-0.3145523,0.1787033-0.3913422,0.2479935c-8.2147141,7.4118958-12.9760742,16.5874786-14.0680389,27.6229782
		c-0.1899719,1.9198608-0.1384277,3.8748932-0.4737854,5.7648163c-0.1991348,1.1222229,0.0873718,1.1835175,1.0216827,1.1824341
		c18.4384155-0.0216064,36.8768692-0.0160828,55.3153-0.0160828c9.2371216,0,18.4742584-0.0062714,27.7113342,0.0118713
		c0.7337189,0.0014343,1.0274353-0.0708008,0.7648621-0.9302216c-0.2359161-0.772171-0.2879791-1.6214142-0.2987213-2.4382629
		c-0.1215363-9.2440033-2.9644318-17.561348-8.4867859-24.9607162
		C156.8522186,110.4252853,154.8558655,108.2472,152.4454956,106.2462692z M124.9931793,147.5646057
		c-15.7167969,0-31.4335938,0-47.1503906,0.0000305c-0.2506104,0-0.511528-0.0432129-0.7488785,0.0129547
		c-0.229866,0.0544128-0.6138992,0.2061157-0.6172638,0.3240204c-0.0089645,0.3137512,0.1017914,0.6607819,0.2629242,0.9375153
		c0.0865707,0.1486816,0.3755264,0.1782227,0.5718613,0.2644653c9.3903351,4.1253967,19.0986176,7.2588501,29.1432571,9.3434906
		c10.2539673,2.128067,20.5643692,2.6547394,30.9471512,1.0824738c12.2359772-1.8528748,23.9458618-5.4875641,35.2795105-10.4048462
		c0.5874176-0.2548828,1.104126-0.5388031,0.8133392-1.2013092c-0.1051941-0.2396698-0.7419281-0.344223-1.1363068-0.344635
		C156.5699921,147.562149,140.7815857,147.5646057,124.9931793,147.5646057z"/>
</g>
</svg>
