<?xml version="1.0" encoding="utf-8"?>
<svg version="1.2" baseProfile="tiny" id="Logo" xmlns="http://www.w3.org/2000/svg" xmlns:xlink="http://www.w3.org/1999/xlink"
	 x="0px" y="0px" viewBox="0 0 250 250" overflow="visible" xml:space="preserve">
<g id="Shield">
	<path id="Left_Wing" fill="#C1C1C1" d="M125,46c0,0,0,135.7347107,0,179l0,0l-78.8999939-43.6999969L31.8999939,58.2000008L125,25
		l0,0v22.2000008l0,0V47"/>
	<path id="Right_Wing_00000028289766694288182900000009522349039825695109_" fill="#C1C1C1" d="M125,47v0.2000008l0,0V25l0,0
		l93.1000061,33.2000008l-14.2000122,123.1000061L125,225l0,0c0-43.0881348,0-179,0-179" style="opacity: 0.9"/>
</g>
<path id="B_00000006705264297997076470000013034314621199456177_" fill="#FFFFFF" d="M90,172V58h33.6675797
	c12.2142868,0,21.4787521,2.5201759,27.7953262,7.560524c10.1988831,7.3657303,12.8642578,27.0501175,4.6585236,37.6843185
	c-3.210022,4.3610153-7.6083527,7.4821167-13.1928558,9.3612366c12.9597168,2.6395264,22.2471924,14.1724396,22.0796051,27.3109283
	c0.000061,10.0679169-3.2492523,17.9328156-9.747879,23.5926971C148.761673,169.1705475,139.718399,172,128.1304932,172H90z
	 M100,109h26.3169403c8.0404663-0.1566467,14.2672424-2.0520935,18.6803284-5.6882935
	c8.9502869-6.6154709,8.8302002-25.8746185-0.2351685-32.093338C140.1925659,67.7407532,133.287796,66,124.0455399,66H100V109z
	 M100,116.9999161V163h28.5277863c15.1988373,0.1171112,26.6071625-7.9770355,26.5177155-23.4629974
	c0.0231018-14.8592834-10.942276-22.680809-25.7445526-22.5370026C129.3008881,116.9999161,100,116.9999161,100,116.9999161z"/>
</svg>
